<svg width="981" height="712" viewBox="0 0 981 712" fill="none" xmlns="http://www.w3.org/2000/svg">
<g clip-path="url(#clip0_104_128)">
<path d="M1097 0H0V712H1097V0Z" fill="white"/>
<g opacity="0.504511">
<path fill-rule="evenodd" clip-rule="evenodd" d="M879.184 496.822C888.744 561.016 656.79 602.887 457.14 573.667C257.49 544.445 165.9 430.334 261.17 369.531C356.439 308.727 869.615 432.628 879.184 496.822Z" fill="#F2F2F2"/>
</g>
<path fill-rule="evenodd" clip-rule="evenodd" d="M592.241 229.324C595.85 226.848 601.449 228.426 605.083 229.887C606.482 230.45 610.06 232.253 612.713 234.28C612.363 232.875 612.05 231.456 611.777 230.027C610.655 224.148 609.881 218.158 609.51 212.202C609.413 210.649 609.538 208.913 609.666 207.155C609.71 206.559 609.753 205.961 609.788 205.366C609.643 205.226 609.545 205.032 609.503 204.769C609.488 204.878 609.48 204.965 609.473 205.032C609.462 205.139 609.457 205.193 609.438 205.198C609.419 205.205 609.385 205.158 609.318 205.065C609.292 205.029 609.26 204.987 609.223 204.937C606.538 201.333 604.284 197.271 603.973 192.806C603.711 189.02 607.178 181.855 612.091 186.815C614.288 189.03 613.718 204.587 610.416 205.54C611.298 210.695 612.407 215.841 613.796 220.921C614.004 220.888 614.217 220.886 614.427 220.911C614.406 219.648 614.405 218.269 614.462 217.795C614.957 213.713 618.756 205.424 624.805 207.033C629.453 208.27 626.604 213.361 625.022 215.59C622.476 219.177 619.596 220.731 615.948 222.597C615.875 223.367 615.321 223.815 614.668 223.961C617.11 232.167 620.319 240.169 624.518 247.728L624.629 247.248H624.63C625.162 244.953 625.784 242.278 626.178 241.716C628.236 238.775 632.793 235.184 636.994 236.924C645.818 240.583 636.24 251.101 628.728 252.245C628.415 252.632 628.085 252.943 627.733 253.122C629.193 255.404 630.753 257.639 632.422 259.815C634.926 263.089 637.616 266.352 640.437 269.597C640.523 267.059 641.64 261.403 641.956 260.795C643.883 257.105 649.435 253.306 653.94 255.928C659.006 258.885 654.412 264.471 651.522 266.999C650.338 268.035 644.48 271.834 642.413 271.851C649.229 279.502 656.751 287.022 664.398 294.27C663.765 291.026 662.937 282.089 663.029 281.098C663.504 275.978 667.251 267.791 674.634 269.786C681.796 271.718 678.627 280.224 676.176 284.279C674.69 286.733 672.637 289.226 670.161 290.938C669.715 291.246 669.131 291.498 668.55 291.75C667.848 292.053 667.148 292.355 666.69 292.755C666.282 293.112 666.157 293.522 666.033 293.928C665.902 294.357 665.772 294.782 665.312 295.137C669.445 299.037 673.606 302.856 677.709 306.568C679.644 308.321 681.615 310.039 683.605 311.737C684.694 311.331 686.247 311.864 686.166 313.249C686.154 313.45 686.102 313.624 686.033 313.782C687.541 315.042 689.059 316.294 690.589 317.531C690.553 317.17 690.563 316.662 690.634 315.96C689.533 317.366 689.578 315.318 689.613 313.756C689.626 313.203 689.637 312.713 689.596 312.456C689.434 311.452 689.224 310.459 689.015 309.466C688.569 307.346 688.123 305.233 688.146 303.045C688.194 298.402 691.469 290.617 698.362 293.383C704.699 295.921 702.393 302.803 700.003 307.119C698.489 309.849 696.419 312.287 694.254 314.621C693.868 315.038 693.439 315.602 693.016 316.16C692.386 316.989 691.765 317.807 691.307 318.11C697.191 322.847 703.214 327.445 709.237 332.043L709.238 332.043C711.936 334.102 714.634 336.161 717.319 338.233C717.436 337.779 717.533 337.328 717.616 336.906C717.448 337.076 717.22 337.156 716.926 337.14C716.848 336.792 716.735 336.329 716.6 335.773H716.599C714.94 328.98 709.889 308.295 723.567 312.304C733.589 315.25 726.515 333.262 719.04 339.563C723.577 343.081 728.07 346.643 732.457 350.313C735.633 352.968 738.714 355.714 741.678 358.551C740.145 354.877 738.699 350.121 739.648 346.335C741.028 340.827 747.5 335.626 753.818 338.76C761.693 342.685 755.635 348.045 749.952 353.071C747.051 355.637 744.248 358.116 743.449 360.273C752.871 369.581 760.915 379.921 766.292 391.701C772.135 404.51 777.559 421.722 774.558 436.053C775.114 429.752 772.745 421.84 771.084 416.282C770.855 415.526 770.642 414.813 770.452 414.153C767.945 405.536 764.395 397.15 759.714 389.302C752.215 376.732 742.308 366.061 730.872 356.373C728.268 357.188 725.44 358.698 723.097 359.947C721.66 360.714 720.406 361.383 719.498 361.735C715.122 363.431 706.721 365.861 703.933 360.519C701.192 355.267 708.188 352.329 712.525 351.152C716.715 350.016 720.492 350.153 724.401 351.085C718.348 346.263 712.147 341.594 705.947 336.927L705.947 336.926C704.806 336.068 703.666 335.21 702.527 334.35C700.951 335.511 699.21 337.188 697.362 338.971C691.496 344.625 684.547 351.324 678.34 345.851C668.974 337.591 686.887 329.196 694.519 329.851C695.456 329.931 696.362 330.109 697.246 330.35C689.463 324.415 681.801 318.357 674.554 311.874C673.254 312.086 671.183 313.806 668.697 315.871C663.107 320.513 655.412 326.902 649.617 321.871C645.433 318.239 646.865 312.584 650.91 309.349C654.97 306.101 660.856 306.107 665.859 307.2C668.022 307.671 670.017 308.569 671.877 309.663C671.956 309.667 672.032 309.671 672.108 309.675C664.977 303.227 657.803 296.636 650.892 289.818C650.772 289.853 650.648 289.889 650.524 289.925C650.106 290.385 649.407 290.553 648.766 290.451C648.413 290.56 648.052 290.673 647.684 290.787C642.211 292.484 635.176 294.666 629.72 293.724C625.705 293.032 622.062 290.099 625.46 286.489C628.223 283.553 635.72 283.975 639.376 284.67C641.16 285.01 643.102 285.994 645.051 286.982C645.87 287.397 646.689 287.813 647.499 288.182C647.71 287.801 648.077 287.555 648.495 287.438C641.671 280.588 635.16 273.5 629.254 266.105C627.467 266.353 625.485 267.059 623.44 267.787C618.519 269.537 613.239 271.417 609.449 267.369C603.855 261.394 614.377 257.906 619.379 258.474C621.068 258.666 622.733 259.095 624.34 259.664C620.043 253.575 616.761 247.067 614.456 240.231C614.433 240.242 614.413 240.252 614.392 240.263C614.359 240.279 614.327 240.296 614.287 240.311C614.322 240.294 614.352 240.276 614.382 240.259L614.383 240.259C614.406 240.246 614.428 240.233 614.452 240.22C614.222 239.536 614.001 238.85 613.791 238.16C613.4 237.965 613.035 237.821 612.86 237.762C615.132 239.17 605.545 239.859 603.75 239.988C599.78 240.272 594.462 240.378 591.55 237.456C589.105 235.003 589.247 231.377 592.241 229.324ZM774.984 436.073C774.817 438.15 774.398 440.052 773.621 441.62C774.207 439.834 774.657 437.979 774.984 436.073Z" fill="#F2F2F2"/>
<path opacity="0.2" fill-rule="evenodd" clip-rule="evenodd" d="M412.009 96.6938C409.375 94.9049 405.286 96.0475 402.633 97.1051C401.611 97.5132 398.997 98.8177 397.059 100.285C397.316 99.2683 397.545 98.2428 397.745 97.2093C398.567 92.9574 399.134 88.626 399.408 84.3187C399.479 83.1962 399.388 81.9414 399.295 80.6697V80.6689C399.264 80.2384 399.232 79.8059 399.207 79.376C399.313 79.2744 399.385 79.1341 399.415 78.944C399.426 79.0228 399.433 79.0859 399.437 79.1343C399.445 79.2114 399.449 79.2507 399.462 79.2549C399.477 79.2591 399.501 79.2259 399.551 79.1583C399.57 79.1325 399.592 79.1016 399.62 79.0658C401.582 76.4585 403.229 73.5209 403.458 70.2923C403.651 67.5541 401.123 62.3746 397.533 65.9626C395.928 67.565 396.338 78.8136 398.748 79.5018C398.102 83.2299 397.29 86.9511 396.274 90.6257C396.122 90.6017 395.967 90.5993 395.814 90.6185C395.829 89.7044 395.831 88.7078 395.79 88.3654C395.429 85.4132 392.659 79.4207 388.242 80.5864C384.848 81.482 386.926 85.163 388.08 86.7739C389.937 89.3669 392.04 90.4894 394.702 91.8372C394.755 92.3953 395.16 92.7192 395.636 92.8243C393.85 98.7576 391.504 104.546 388.435 110.013L388.354 109.665C387.965 108.006 387.513 106.072 387.225 105.666C385.724 103.54 382.399 100.945 379.33 102.205C372.886 104.854 379.875 112.456 385.36 113.28C385.587 113.56 385.828 113.785 386.085 113.914C385.018 115.565 383.878 117.181 382.658 118.755C380.829 121.124 378.864 123.484 376.803 125.831C376.741 123.997 375.928 119.907 375.697 119.467C374.292 116.799 370.239 114.055 366.95 115.952C363.25 118.091 366.601 122.129 368.71 123.957C369.574 124.706 373.85 127.45 375.359 127.462C370.38 132.997 364.885 138.437 359.298 143.68C359.761 141.334 360.369 134.872 360.302 134.155C359.958 130.454 357.225 124.534 351.834 125.98C346.604 127.38 348.914 133.529 350.702 136.46C351.785 138.234 353.284 140.036 355.091 141.273C355.417 141.496 355.842 141.677 356.267 141.859C356.779 142.078 357.29 142.296 357.625 142.586C357.922 142.844 358.013 143.14 358.104 143.434C358.199 143.743 358.294 144.051 358.63 144.308C355.611 147.129 352.571 149.892 349.574 152.578C348.16 153.846 346.72 155.089 345.267 156.317C344.471 156.024 343.338 156.41 343.396 157.411C343.405 157.557 343.442 157.682 343.493 157.797C342.392 158.708 341.282 159.614 340.166 160.509C340.191 160.248 340.184 159.881 340.133 159.373C340.936 160.39 340.904 158.908 340.879 157.779C340.869 157.38 340.862 157.025 340.892 156.839C341.01 156.114 341.164 155.394 341.317 154.678V154.677C341.644 153.144 341.97 151.616 341.954 150.034C341.921 146.676 339.533 141.048 334.499 143.05C329.871 144.888 331.552 149.864 333.296 152.983C334.399 154.957 335.911 156.719 337.49 158.406C337.772 158.708 338.084 159.115 338.394 159.519C338.853 160.118 339.306 160.709 339.641 160.929C335.343 164.355 330.943 167.682 326.543 171.009C324.572 172.499 322.601 173.989 320.64 175.488C320.554 175.159 320.484 174.833 320.423 174.528C320.546 174.651 320.713 174.709 320.927 174.697C320.984 174.445 321.067 174.111 321.166 173.708V173.708C322.38 168.797 326.077 153.837 316.088 156.74C308.769 158.873 313.927 171.896 319.382 176.45C316.069 178.995 312.787 181.572 309.581 184.227C307.262 186.148 305.011 188.135 302.845 190.188C303.967 187.531 305.024 184.091 304.333 181.354C303.327 177.371 298.604 173.612 293.99 175.881C288.239 178.721 292.66 182.595 296.807 186.227C298.924 188.082 300.969 189.874 301.552 191.433C294.669 198.167 288.791 205.647 284.861 214.166C280.589 223.431 276.619 235.878 278.804 246.24C278.402 241.684 280.136 235.961 281.353 231.942C281.519 231.396 281.676 230.88 281.816 230.403C283.645 224.171 286.243 218.106 289.665 212.429C295.145 203.337 302.382 195.618 310.736 188.609C312.638 189.198 314.702 190.288 316.412 191.191H316.412C317.461 191.745 318.376 192.228 319.038 192.482C322.233 193.707 328.366 195.462 330.404 191.598C332.407 187.799 327.3 185.678 324.135 184.828C321.075 184.008 318.318 184.108 315.463 184.783C319.885 181.294 324.414 177.916 328.943 174.539L328.944 174.538C329.777 173.918 330.609 173.296 331.442 172.675C332.592 173.514 333.862 174.727 335.211 176.014C339.491 180.101 344.563 184.943 349.097 180.983C355.939 175.007 342.863 168.943 337.29 169.42C336.606 169.477 335.944 169.606 335.299 169.781C340.984 165.487 346.581 161.103 351.874 156.413C352.824 156.567 354.335 157.809 356.151 159.302C360.229 162.656 365.844 167.273 370.079 163.634C373.135 161.006 372.091 156.917 369.139 154.58C366.177 152.232 361.879 152.238 358.226 153.031C356.646 153.372 355.189 154.022 353.831 154.814C353.773 154.817 353.717 154.82 353.662 154.823C358.871 150.158 364.112 145.389 369.161 140.457C369.248 140.482 369.339 140.508 369.429 140.534C369.734 140.867 370.245 140.988 370.712 140.915C370.844 140.955 370.978 140.995 371.112 141.037C371.241 141.076 371.371 141.116 371.502 141.156C375.498 142.381 380.634 143.957 384.618 143.274C387.549 142.772 390.211 140.651 387.73 138.041C385.715 135.919 380.24 136.227 377.571 136.73C376.268 136.977 374.85 137.689 373.427 138.404C372.829 138.705 372.23 139.006 371.638 139.273C371.485 138.997 371.217 138.82 370.912 138.735C375.897 133.779 380.654 128.652 384.969 123.302C386.274 123.482 387.721 123.991 389.214 124.517C392.806 125.781 396.66 127.138 399.429 124.211C403.517 119.887 395.835 117.37 392.183 117.781C390.95 117.921 389.733 118.232 388.559 118.643C391.699 114.24 394.098 109.532 395.785 104.589C395.827 104.608 395.86 104.628 395.908 104.646C395.882 104.634 395.86 104.621 395.838 104.608C395.827 104.602 395.815 104.596 395.804 104.589C395.799 104.587 395.793 104.583 395.787 104.581C395.956 104.086 396.117 103.589 396.271 103.091C396.557 102.949 396.823 102.845 396.951 102.803C395.291 103.821 402.291 104.316 403.602 104.409C406.5 104.613 410.383 104.689 412.51 102.575C414.297 100.8 414.194 98.1779 412.009 96.6938ZM278.37 245.831C278.498 247.214 278.879 248.478 279.628 249.512C279.078 248.33 278.666 247.098 278.37 245.831Z" fill="#C1DEE2"/>
<g opacity="0.7">
<path fill-rule="evenodd" clip-rule="evenodd" d="M760.908 387.888C771.305 387.32 784.172 393.71 785.284 405.608C786.084 414.254 785.84 422.874 787.082 431.507C788.08 438.406 790.19 445.029 793.07 451.314C795.835 457.357 801.572 462.501 803.065 468.957C804.017 473.071 803.484 478.858 802.173 482.881C800.581 487.774 801.427 487.387 804.604 491.493C810.835 499.537 816.442 507.787 820.411 517.395C826.125 531.234 829.873 547.41 827.747 562.559C827.481 564.482 827.161 571.386 824.647 571.869C821.836 572.408 823.146 568.46 823.298 567.184C824.25 559.047 825.104 551.934 823.953 543.669C819.497 511.781 797.763 490.771 783.608 463.707C782.831 462.311 781.193 458.988 780.051 456.796C778.245 453.333 776.432 446.747 773.994 444.18C769.393 439.345 773.621 449.066 774.52 450.922C775.647 453.269 776.897 455.764 778.055 457.821C783.364 467.356 789.291 477.763 794.776 487.593C771.061 493.28 754.356 463.269 747.991 443.539C742.746 427.284 736.472 389.279 760.908 387.888Z" fill="#69A1AC"/>
<path fill-rule="evenodd" clip-rule="evenodd" d="M900.309 357.701C882.917 359.153 871.756 371.228 866.561 388.117C863.757 397.218 863.437 406.568 861.883 415.922C859.545 429.994 854.509 440.658 844.659 450.684C841.612 453.789 839.364 456.977 837.772 460.387C834.595 463.793 831.838 467.646 829.811 472.358C827.221 478.374 826.49 485.594 829.476 491.592C830.284 493.205 832.287 496.442 834.367 497.913C826.581 515.36 822.308 534.468 822.787 553.553C823.077 565.072 823.61 576.597 824.235 588.103C824.402 591.193 825.362 596.294 826.795 591.113C828.113 586.374 826.459 578.934 826.307 573.984C825.568 549.865 824.936 527.934 834.367 505.401C835.357 503.038 836.401 500.696 837.498 498.372C837.559 498.333 837.62 498.285 837.681 498.24C837.719 498.273 837.757 498.309 837.803 498.343C837.871 498.212 837.963 498.056 838.077 497.882C838.389 497.541 838.663 497.112 838.922 496.632C839.76 495.412 840.705 493.977 840.713 493.192C840.713 493.187 840.713 493.177 840.713 493.171C846.548 483.138 853.237 473.658 860.07 464.363C860.017 464.431 867.483 453.737 866.325 459.651C865.768 462.501 860.283 467.928 858.067 470.946C853.161 477.661 847.401 486.171 842.617 494.399C841.977 494.789 841.063 496.7 840.408 498.125C840.042 498.847 839.707 499.574 839.372 500.208C856.33 506.104 869.517 494.228 878.513 480.414C878.521 480.397 878.529 480.38 878.544 480.364C881.279 476.548 884.082 472.758 887.587 469.74C893.43 464.705 899.684 463.817 906.578 461.339C925.365 454.582 933.356 428.954 935.893 409.937C938.749 388.483 924.748 355.586 900.309 357.701Z" fill="#89C5CC"/>
<path fill-rule="evenodd" clip-rule="evenodd" d="M865.959 297.622C848.118 317.168 839.494 344.28 832.668 369.769C825.043 398.236 820.007 427.142 819.817 456.74C819.687 476.186 819.184 495.753 820.266 515.176C820.647 522.074 821.302 528.985 822.338 535.809C822.422 536.369 824.753 551.606 826.97 548.056C828.235 546.037 824.593 532.25 824.319 529.953C822.765 517.019 822.407 503.991 822.483 490.964C822.605 469.515 822.003 448.177 824.067 426.807C824.38 423.616 824.624 420.265 825.34 417.144C826.109 413.825 825.134 415.274 827.625 413.96C830.04 412.683 833.034 412.865 835.54 411.263C845.505 404.908 850.594 388.581 854.563 377.87C859.095 365.62 861.853 352.557 864.055 339.667C865.67 330.195 866.828 320.781 867.483 311.187C867.688 308.164 867.696 305.002 868.26 302.029C868.412 301.227 869.182 299.809 869.151 299.099C869.09 297.595 868.229 296.712 868.161 295.449C867.414 296.156 866.675 296.881 865.959 297.622Z" fill="#89C5CC"/>
<path fill-rule="evenodd" clip-rule="evenodd" d="M768.661 558.054C768.661 590.38 793.557 616.586 824.273 616.586C854.989 616.586 879.885 590.38 879.885 558.054" fill="#89C5CC"/>
<path fill-rule="evenodd" clip-rule="evenodd" d="M862.386 506.807C876.145 505.739 891.518 517.426 898.161 529.588C903.509 539.393 902.61 552.269 899.303 562.687C897.087 569.661 892.257 579.605 884.197 579.702C874.118 579.823 873.631 566.71 873.44 559.045C873.181 548.853 871.955 539.976 864.329 533.029C863.384 532.172 862.394 531.369 861.411 530.567C860.528 529.854 859.651 529.142 858.806 528.391C858.676 528.271 858.539 528.152 858.402 528.031C855.705 525.644 852.871 523.138 852.529 519.203C852.026 513.503 855.081 512.476 859.751 513.535C859.903 513.57 860.314 513.733 860.87 513.955C863.255 514.906 868.336 516.936 867.376 514.51C867.018 513.596 865.693 512.871 864.017 512.328C859.697 511.833 854.54 511.259 853.062 511.602C837.064 515.295 830.84 538.614 829.187 553.43C829.004 555.029 828.859 556.633 828.737 558.24H825.797C826.003 554.36 826.269 550.487 826.886 546.649C829.24 531.974 836.615 510.42 852.78 508.038C853.374 507.949 855.568 507.934 858.227 508.098C859.484 507.358 860.901 506.909 862.386 506.807Z" fill="#69A1AC"/>
</g>
<g opacity="0.5">
<path fill-rule="evenodd" clip-rule="evenodd" d="M318.604 280.987C321.806 276.183 327.747 263.981 332.252 262.265C335.155 261.159 334.308 272.597 334.344 274.777C334.483 283.216 333.703 291.6 332.74 299.967C331.003 315.058 325.325 328.496 317.537 341.339C313.53 347.947 308.829 354.637 302.319 358.76C299.322 360.659 295.717 360.977 292.757 362.613C289.31 364.518 291.187 362.978 289.634 366.758C287.477 372.006 286.787 378.778 285.789 384.377C281.207 410.086 270.112 545.983 272.035 572.132C272.206 574.45 269.136 575.004 268.982 572.175C268.168 557.172 275.217 453.276 278.775 419.3C282.332 385.323 285.931 355.306 289.54 343.551C293.919 329.29 301.826 312.14 308.409 298.84C311.467 292.662 314.8 286.696 318.604 280.987Z" fill="#69A1AC"/>
<path fill-rule="evenodd" clip-rule="evenodd" d="M342.366 447.628C350.696 441.191 359.714 453.339 352.175 459.777C348.008 463.335 343.651 462.07 341.199 459.104C339.607 461.147 338.117 463.283 336.685 465.087C332.322 470.584 328.199 476.212 324.258 481.972C316.072 493.938 309.056 506.579 301.721 518.988C294.482 531.237 287.301 543.548 280.74 556.106C275.182 566.746 267.773 579.263 265.87 590.928C268.757 566.189 279.714 542.411 292.76 520.602C305.701 498.972 320.552 475.35 340.589 458.281C338.549 455.124 338.493 450.619 342.366 447.628Z" fill="#C1DEE2"/>
<path fill-rule="evenodd" clip-rule="evenodd" d="M184.29 387.295C188.952 388.254 196.569 399.353 200.412 403.582C204.979 408.607 209.121 413.963 213.027 419.576C221.434 431.656 228.953 444.499 235.347 457.893C245.77 479.726 254.121 502.14 260.181 525.916C263.891 540.469 266.293 555.554 267.716 570.534C267.985 573.359 270.799 595.139 266.744 595.726C263.098 596.255 264.224 579.188 264.048 576.866C262.059 550.675 256.101 525.192 247.814 500.505C246.009 495.127 244.332 488.541 241.445 483.701C239.366 480.216 241.43 481.431 237.777 480.112C234.639 478.978 231.065 479.256 227.853 477.868C220.874 474.856 215.287 469.009 210.388 463.127C200.869 451.695 193.326 439.329 189.394 424.682C187.213 416.561 185.208 408.393 184.096 400.02C183.809 397.856 181.288 386.677 184.29 387.295Z" fill="#69A1AC"/>
<path fill-rule="evenodd" clip-rule="evenodd" d="M202.686 202.628C220.246 234.679 234.676 269.887 243.993 305.547C249.639 327.153 253.586 349.325 257.509 371.335C263.582 405.416 269.327 439.495 270.961 474.181C272.605 509.069 275.855 549.308 265.002 582.91C270.424 548.795 265.262 512.481 264.347 478.154C263.911 461.767 262.646 445.54 260.985 429.248C259.374 413.445 256.742 397.717 254.291 382.037C253.097 374.401 251.843 366.777 250.566 359.156C250.185 356.883 250.024 350.136 248.654 348.583C247.275 347.02 240.238 346.382 238.029 345.235C233.58 342.925 229.396 339.643 225.693 336.175C218.593 329.527 212.417 320.842 207.543 312.279C196.264 292.468 191.755 268.291 191.983 245.346C192.026 240.891 198.833 192.921 196.1 192.261C196.264 192.058 196.42 191.848 196.567 191.63C198.636 195.278 200.667 198.949 202.686 202.628Z" fill="#89C5CC"/>
<path fill-rule="evenodd" clip-rule="evenodd" d="M392.212 318.224C392.483 317.813 394.247 314.953 393.359 315.136C395.167 314.763 390.872 318.29 395.377 316.126C393.238 318.252 394.473 321.014 394.501 323.875C394.547 328.522 393.809 333.129 392.978 337.675C391.664 344.862 389.707 351.849 386.866 358.533C380.675 373.099 370.162 387.121 357.681 396.228C351.52 400.723 345.482 402.255 338.455 404.324C334.016 405.632 333.664 408.049 331.307 412.582C326.403 422.024 321.585 431.432 317.259 441.192C312.094 452.848 307.08 464.515 302.35 476.376C286.415 516.326 273.446 557.715 266.636 600.549C266.469 575.308 272.017 549.31 279.015 525.25C284.113 507.721 290.749 490.823 297.828 474.097C299.542 470.045 302.142 464.832 302.871 460.358C303.38 457.223 301.821 454.209 301.107 450.906C298.324 438.048 298.523 423.642 300.967 410.715C303.662 396.459 311.456 389.843 324.639 387.824C329.461 387.085 335.59 387.356 340.01 385.192C344.827 382.836 346.814 375.091 349.553 370.119C356.91 356.764 365.651 343.956 375.688 332.703C378.467 329.587 381.456 326.712 384.626 324.048C386.626 322.366 390.85 320.295 392.212 318.224Z" fill="#89C5CC"/>
<path fill-rule="evenodd" clip-rule="evenodd" d="M240.612 577.882C240.273 575.461 242.055 573.288 244.38 573.288H291.168C293.493 573.288 295.275 575.461 294.936 577.882L291.32 603.691C290.218 611.558 283.803 617.387 276.247 617.387H259.301C251.745 617.387 245.33 611.558 244.228 603.691L240.612 577.882Z" fill="#C1DEE2"/>
</g>
<path fill-rule="evenodd" clip-rule="evenodd" d="M202.196 586.482C202.196 603.55 203.476 617.387 220.653 617.387C237.831 617.387 239.11 603.55 239.11 586.482" fill="#F2F2F2"/>
<path fill-rule="evenodd" clip-rule="evenodd" d="M225.763 575.833C225.134 576.979 224.572 578.148 224.077 579.333C224.059 576.89 224.188 574.43 224.538 571.935C225.137 567.662 226.052 563.411 226.912 559.167C227.53 556.116 227.491 550.639 229.836 548.208C230.479 547.682 230.634 548.713 230.634 549.16C230.642 549.255 230.632 547.335 230.008 547.67C226.297 549.686 225.095 556.028 223.907 559.203C222.174 563.839 220.699 568.576 220.092 573.399C219.939 574.616 219.855 575.834 219.836 577.05C219.71 576.725 219.592 576.397 219.461 576.073C217.319 570.787 214.429 565.628 210.824 560.871C209.937 559.701 198.781 548.151 197.908 549.919C197.994 550.175 198.174 550.388 198.449 550.558C198.465 550.577 198.466 550.566 198.456 550.538C199.111 551.652 200.975 553.372 201.554 554.349C203.015 556.804 204.15 559.411 205.303 561.968C207.74 567.372 210.001 572.83 212.192 578.299C212.702 579.573 213.234 580.84 213.777 582.103C208.184 573.613 200.723 565.904 190.451 561.491C193.959 563.37 196.259 566.903 198.628 569.609C201.486 572.873 204.495 576.049 207.358 579.309C210.734 583.156 214.708 587.206 217.955 591.462C221.101 598.413 224.158 605.372 226.045 612.679C225.272 610.155 225.985 606.665 225.852 604.016C225.747 601.907 225.513 599.815 225.193 597.727C225.589 598.669 225.931 599.611 226.085 600.488C225.944 599.018 225.781 597.557 225.606 596.103C226.056 594.743 226.497 593.473 226.795 592.427C228.322 587.062 230.14 581.789 232.616 576.65C234.908 571.896 237.537 567.202 240.4 562.652C241.737 560.53 243.091 558.417 244.437 556.299C245.318 554.913 246.157 552.694 247.383 551.366C239.455 558.995 230.793 566.679 225.763 575.833Z" fill="#F2F2F2"/>
<path fill-rule="evenodd" clip-rule="evenodd" d="M913.122 137.771C910.852 129.792 905.519 123.548 899.974 117.825C889.194 106.686 883.397 99.7984 879.55 83.5042C877.287 73.9207 874.994 63.7652 867.825 56.8124C862.599 51.7493 853.618 47.4952 846.639 51.1209C835.898 57.8673 833.018 71.7119 834.1 84.1088C835.441 99.4745 842.259 108.949 855.362 114.608C862.744 117.795 867.65 122.001 871.657 129.33C874.857 135.189 876.731 142.527 880.761 147.84C886.779 155.781 894.313 159.311 903.6 157.992C894.9 141.145 884.737 124.14 872.48 109.955C871.33 108.529 864.565 103.071 865.928 100.64C867.429 97.9647 874.377 108.017 874.331 107.956C877.896 112.26 881.187 116.834 884.425 121.453C884.417 121.458 884.41 121.46 884.402 121.465C887.731 126.203 891.038 131.012 894.283 135.88C895.593 137.94 896.873 140.026 898.092 142.164C899.89 145.301 902.739 154.206 905.672 156.135C906.296 156.548 906.883 156.778 907.424 156.873C909.428 160.325 911.37 163.804 913.229 167.324C918.066 176.517 922.218 186.224 924.13 196.603C924.686 199.633 924.29 210.965 926.256 213.152C929.844 217.153 928.793 209.449 928.579 207.124C926.797 187.87 920.23 171.467 910.692 155.28C913.625 151.253 914.044 141.004 913.122 137.771Z" fill="#F2F2F2"/>
<path fill-rule="evenodd" clip-rule="evenodd" d="M790.091 147.074C793.877 142.378 802.981 141.581 808.55 141.895C815.436 142.284 822.514 144.05 829.073 146.184C839.868 149.699 850.358 156.115 859.872 162.325C861.015 163.073 875.131 172.009 873.882 173.578C872.648 175.132 858.783 164.517 855.698 162.687C849.108 158.782 843.059 154.164 835.792 151.584C828.273 148.913 820.312 147.856 812.404 147.929C811.391 147.939 808.077 147.194 808.009 148.775C807.933 150.321 813.418 149.514 814.385 149.524C818.377 149.562 822.392 149.957 826.323 150.685C833.697 152.049 840.629 154.796 846.937 159.011C845.177 163.322 840.957 165.31 836.523 164.231C832.699 163.298 828.966 160.997 825.21 160.333C822.628 159.875 820.045 160.148 817.539 160.913C810.934 162.933 807.125 167.072 799.865 164.193C794.174 161.936 784.652 153.828 790.091 147.074Z" fill="#F2F2F2"/>
<path fill-rule="evenodd" clip-rule="evenodd" d="M773.804 71.4015C765.393 70.7559 756.006 77.8194 751.95 85.1698C748.68 91.0967 749.231 98.879 751.25 105.175C752.603 109.391 755.555 115.4 760.477 115.459C766.635 115.532 766.932 107.607 767.054 102.974C767.206 96.8143 767.961 91.4487 772.615 87.2504C773.194 86.7317 773.796 86.2466 774.405 85.7615C774.939 85.3309 775.472 84.9003 775.99 84.4473C776.074 84.3744 776.158 84.3022 776.241 84.2292C777.887 82.7868 779.616 81.2714 779.829 78.8941C780.134 75.4484 778.268 74.8283 775.411 75.4684C775.32 75.489 775.076 75.5877 774.733 75.7219C773.278 76.2967 770.17 77.5234 770.756 76.057C770.977 75.5045 771.785 75.0667 772.806 74.7386C775.449 74.4396 778.595 74.0927 779.502 74.3C789.276 76.5321 793.077 90.626 794.091 99.5805C794.205 100.594 794.296 101.612 794.372 102.631H796.163C796.041 100.237 795.881 97.8486 795.492 95.4817C794.052 86.6122 789.55 73.5852 779.67 72.1456C779.312 72.092 777.971 72.0829 776.348 72.1821C775.579 71.7344 774.71 71.4637 773.804 71.4015Z" fill="#F2F2F2"/>
<path fill-rule="evenodd" clip-rule="evenodd" d="M406.942 394.955C412.483 398.472 417.928 400.172 420.484 399.479C426.893 397.739 427.482 373.044 422.523 363.309C417.564 353.574 392.071 349.33 390.786 368.619C390.34 375.313 393.009 381.288 396.952 386.163L389.882 420.873H410.42L406.942 394.955Z" fill="#B28B67"/>
<path fill-rule="evenodd" clip-rule="evenodd" d="M424.463 367.68C424.259 366.418 423.762 365.017 423.361 363.823C422.843 362.284 422.061 360.897 421.199 359.588C419.578 357.127 417.633 354.903 415.484 353.057C411.561 349.687 406.567 347.742 401.655 348.374C399.176 348.692 396.768 349.689 394.719 351.347C392.868 352.845 391.087 355.051 388.691 355.209C386.082 355.381 383.692 352.957 381.6 351.459C379.241 349.771 376.733 348.541 373.977 348.063C369.359 347.262 365.021 348.906 361.838 352.895C358.452 357.142 355.99 363.369 358.214 368.995C358.628 370.041 359.159 370.922 359.923 371.654C360.622 372.323 361.692 373.037 361.975 374.107C362.277 375.245 361.376 376.714 361.027 377.74C360.527 379.211 360.116 380.756 360.262 382.355C360.502 384.982 362.069 387.489 363.723 389.215C365.408 390.972 367.48 391.979 369.694 392.444C371.172 392.754 372.682 392.925 374.185 392.808C374.93 392.751 375.589 392.533 376.311 392.359C377.013 392.19 377.406 392.387 378.002 392.792C380.772 394.678 383.749 395.408 386.947 395.127C389.645 394.891 392.756 394.202 394.957 392.254C397.403 390.091 397.354 387.108 396.778 383.922C397.388 384.24 399.074 384.437 398.066 383.169C397.667 382.666 396.913 382.462 396.401 382.167C395.805 381.823 395.199 381.378 394.736 380.817C392.866 378.551 394.755 373.941 397.105 373.181C400.597 372.053 401.379 377.254 403.871 378.6C405.305 379.373 406.804 378.316 407.878 377.236C409.316 375.789 410.296 373.874 411.143 371.924C411.84 370.318 412.489 368.689 413.2 367.092C413.531 366.346 414.68 364.237 414.103 363.393C416.604 362.867 419.39 363.963 421.544 365.398C422.434 365.991 423.113 366.646 423.588 367.694C423.69 367.918 423.911 368.585 424.189 368.612C424.707 368.664 424.514 367.997 424.463 367.68Z" fill="#191847"/>
<path fill-rule="evenodd" clip-rule="evenodd" d="M337.889 534.439C331.157 534.439 325.7 540.183 325.7 547.268V633.375C325.7 640.459 331.157 646.203 337.889 646.203H439.308C446.04 646.203 451.497 640.459 451.497 633.375V547.268C451.497 540.183 446.04 534.439 439.308 534.439H337.889ZM352.708 559.676C351.026 559.676 349.661 561.112 349.661 562.883V617.76C349.661 619.531 351.026 620.967 352.708 620.967H424.488C426.171 620.967 427.535 619.531 427.535 617.76V562.883C427.535 561.112 426.171 559.676 424.488 559.676H352.708Z" fill="#C5CFD6"/>
<path fill-rule="evenodd" clip-rule="evenodd" d="M536.354 641.697C519.482 619.996 508.065 603.909 502.106 593.434C491.901 575.499 483.548 559.54 480.912 553.444C474.627 538.905 495.382 532.098 500.079 538.879C507.189 549.142 522.373 581.437 545.631 635.764L536.354 641.697Z" fill="#B28B67"/>
<path fill-rule="evenodd" clip-rule="evenodd" d="M501.779 635.388L470.379 552.138C463.664 536.963 496.095 526.987 501.031 534.05C512.237 550.084 538.869 613.336 542.208 618.113L501.779 635.388Z" fill="#2F3676"/>
<path fill-rule="evenodd" clip-rule="evenodd" d="M418.15 618.693C424.267 609.296 446.515 577.68 458.633 564.599C462.115 560.84 465.513 557.232 468.727 553.87C478.279 543.877 497.3 560.674 487.766 569.776C464.021 592.444 429.376 623.046 426.481 625.774C422.425 629.599 414.306 624.598 418.15 618.693Z" fill="#B28B67"/>
<path fill-rule="evenodd" clip-rule="evenodd" d="M421.993 614.65C421.469 613.889 420.448 613.71 419.764 614.312C418.363 615.543 416.223 617.548 415.469 618.924C414.311 621.035 412.759 625.492 412.759 625.492C415.085 626.906 454.559 650.91 454.559 650.91C454.559 650.91 459.298 646.227 456.036 643.641C452.773 641.053 450.651 639.277 450.651 639.277L436.167 618.258C435.915 617.892 435.426 617.818 435.086 618.094L432.011 620.587C432.011 620.587 427.886 620.208 425.854 618.972C424.566 618.189 422.981 616.085 421.993 614.65Z" fill="#E4E4E4"/>
<path fill-rule="evenodd" clip-rule="evenodd" d="M531.281 637.359C530.466 636.976 529.496 637.359 529.189 638.241C528.56 640.045 527.659 642.909 527.659 644.496C527.659 646.935 528.431 651.612 528.431 651.612C531.116 651.612 576.697 651.612 576.697 651.612C576.697 651.612 578.578 645.061 574.525 644.538C570.472 644.016 567.79 643.595 567.79 643.595L545.268 633.02C544.877 632.836 544.417 633.029 544.254 633.447L542.775 637.226C542.775 637.226 539.022 639.07 536.677 639.07C535.189 639.07 532.818 638.083 531.281 637.359Z" fill="#E4E4E4"/>
<path fill-rule="evenodd" clip-rule="evenodd" d="M459.081 556.296C459.081 556.296 419.934 549.58 406.638 547.11C381.374 542.418 374.007 528.099 378.363 496.856H424.912C434.153 499.667 502.13 531.62 502.13 531.62C510.284 535.883 508.765 548.452 507.275 552.594C507.184 552.847 466.039 627.017 466.039 627.017L427.958 601.467L459.153 559.307C459.153 559.307 460.388 556.686 459.081 556.296Z" fill="#5C63AB"/>
<path fill-rule="evenodd" clip-rule="evenodd" d="M334.598 536.159C337.106 530.801 349.635 461.838 349.635 461.838L368.374 461.912C368.374 461.912 346.966 534.965 345.646 538.411C343.931 542.886 346.844 549.391 348.82 553.801C349.125 554.482 349.408 555.115 349.648 555.682C346.907 556.973 345.591 555.411 344.203 553.766C342.635 551.907 340.976 549.939 337.071 551.853C335.563 552.592 334.135 553.466 332.74 554.32C327.923 557.27 323.496 559.979 317.475 556.066C316.521 555.446 315.475 553.11 318.002 551.285C324.299 546.738 333.372 538.78 334.598 536.159ZM492.421 509.289L468.179 484.381L460.127 499.054L485.335 514.708C491.656 525.195 495.368 529.726 496.472 528.302C497.403 527.1 496.976 525.784 496.583 524.571C496.277 523.626 495.992 522.744 496.384 522.03C497.28 520.397 502.341 521.332 507.108 522.436C511.875 523.539 510.772 521.073 509.759 519.786C505.253 515.956 499.474 512.457 492.421 509.289Z" fill="#B28B67"/>
<path fill-rule="evenodd" clip-rule="evenodd" d="M406.736 405.85L414.136 404.513C425.793 447.913 485.687 477.496 489.363 493.721C490.712 499.671 486.646 502.679 488.746 504.491L479.128 511.907C477.499 509.905 474.024 513.566 466.764 511.005C459.506 508.444 406.736 457.24 406.736 405.85Z" fill="#DB2721"/>
<path fill-rule="evenodd" clip-rule="evenodd" d="M393.2 396.761C391.522 396.638 390.065 397.97 389.948 399.737L389.572 405.414C375.645 416.701 341.129 450.431 332.135 513.22C331.19 519.815 332.899 523.348 334.264 526.171C335.198 528.102 335.971 529.701 335.624 531.721L348.212 535.38C348.212 533.889 349.799 532.755 351.846 531.291C354.821 529.163 358.771 526.34 360.231 520.71C361.615 515.375 363.642 508.711 366.064 501.298C366.292 511.116 368.061 520.145 371.912 527.624C381.519 546.282 437.042 525.82 442.843 506.785C445.939 496.629 441.546 488.101 435.737 476.824C428.364 462.508 418.707 443.76 419.184 411.62L419.827 401.938C419.944 400.171 418.679 398.638 417 398.514L393.2 396.761Z" fill="#FF4133"/>
<path fill-rule="evenodd" clip-rule="evenodd" d="M648.162 338.08C642.612 341.6 637.159 343.301 634.6 342.607C628.181 340.866 627.591 316.152 632.557 306.409C637.523 296.666 663.055 292.419 664.341 311.724C664.788 318.423 662.115 324.403 658.166 329.281L665.247 364.018H644.678L648.162 338.08Z" fill="#B28B67"/>
<path fill-rule="evenodd" clip-rule="evenodd" d="M633.9 302.631C634.08 301.454 633.724 300.876 638.221 297.56C642.718 294.243 649.979 290.331 657.292 292.034C666.784 294.243 670.553 300.832 674.213 304.035C677.512 306.923 680.822 307.26 682.785 310.843C684.746 314.426 685.79 324.736 684.084 328.835C681.731 334.488 677.09 336.011 673.702 337.639C667.893 340.433 659.681 337.483 659.483 336.994C657.944 333.213 649.661 322.549 644.678 318.068C641.015 314.774 633.055 308.156 633.9 302.631Z" fill="#5C63AB"/>
<mask id="mask0_104_128" style="mask-type:alpha" maskUnits="userSpaceOnUse" x="633" y="291" width="52" height="48">
<path fill-rule="evenodd" clip-rule="evenodd" d="M633.9 302.631C634.08 301.454 633.724 300.876 638.221 297.56C642.718 294.243 649.979 290.331 657.292 292.034C666.784 294.243 670.553 300.832 674.213 304.035C677.512 306.923 680.822 307.26 682.785 310.843C684.746 314.426 685.79 324.736 684.084 328.835C681.731 334.488 677.09 336.011 673.702 337.639C667.893 340.433 659.681 337.483 659.483 336.994C657.944 333.213 649.661 322.549 644.678 318.068C641.015 314.774 633.055 308.156 633.9 302.631Z" fill="white"/>
</mask>
<g mask="url(#mask0_104_128)">
<path fill-rule="evenodd" clip-rule="evenodd" d="M662.133 329.942C671.968 317.175 674.283 301.778 674.283 301.778L677.245 303.75C677.245 303.75 673.602 320.576 662.133 329.942ZM658.391 336.957C674.308 322.237 678.104 305.695 678.104 305.695L681.53 306.758C681.53 306.758 676.808 325.256 658.391 336.957Z" fill="black" fill-opacity="0.2"/>
</g>
<path fill-rule="evenodd" clip-rule="evenodd" d="M678.931 440.189L646.727 551.212L631.128 645.629H618.896L635.38 440.189H678.931Z" fill="#997659"/>
<path fill-rule="evenodd" clip-rule="evenodd" d="M690.451 440.189C688.264 501.147 690.838 532.589 691.328 538.127C691.817 543.666 698.521 579.576 714.39 647.488L701.357 642.768C676.277 580.483 667.73 548.111 664.853 539.932C661.977 531.754 654.337 498.506 641.934 440.189H690.451Z" fill="#B28B67"/>
<path fill-rule="evenodd" clip-rule="evenodd" d="M712.106 641.604C712.921 641.221 713.892 641.603 714.199 642.486C714.828 644.292 715.729 647.16 715.729 648.75C715.729 651.19 714.957 655.874 714.957 655.874C712.272 655.874 666.691 655.874 666.691 655.874C666.691 655.874 664.81 649.314 668.863 648.791C672.916 648.268 675.598 647.847 675.598 647.847L698.119 637.259C698.511 637.075 698.971 637.268 699.134 637.685L700.613 641.469C700.613 641.469 704.366 643.316 706.711 643.316C708.198 643.316 710.569 642.328 712.106 641.604Z" fill="#E4E4E4"/>
<path fill-rule="evenodd" clip-rule="evenodd" d="M631.665 641.604C632.48 641.221 633.451 641.603 633.758 642.486C634.386 644.292 635.287 647.16 635.287 648.75C635.287 651.19 634.516 655.874 634.516 655.874C631.831 655.874 586.25 655.874 586.25 655.874C586.25 655.874 584.368 649.314 588.422 648.791C592.475 648.268 595.157 647.847 595.157 647.847L617.678 637.259C618.07 637.075 618.53 637.268 618.693 637.685L620.172 641.469C620.172 641.469 623.924 643.316 626.27 643.316C627.757 643.316 630.127 642.328 631.665 641.604Z" fill="#E4E4E4"/>
<path fill-rule="evenodd" clip-rule="evenodd" d="M683.21 440.189L669.518 496.754H627.696L633.932 440.189H683.21Z" fill="#69A1AC"/>
<path fill-rule="evenodd" clip-rule="evenodd" d="M690.912 440.189C697.67 461.551 693.479 496.754 693.479 496.754H650.802L639.067 440.189H690.912Z" fill="#89C5CC"/>
<path fill-rule="evenodd" clip-rule="evenodd" d="M560.731 350.26L594.254 355.647L587.96 371.237L560.884 359.472C549.111 360.468 543.432 360.075 543.849 358.291C544.201 356.787 545.458 356.353 546.615 355.953C547.517 355.642 548.359 355.352 548.666 354.593C549.366 352.858 545.606 349.168 541.896 345.827C538.186 342.486 540.724 341.929 542.312 342.006C547.934 343.489 554.074 346.24 560.731 350.26ZM580.771 439.704L605.053 414.814L613.113 429.471L587.865 445.116C581.532 455.594 577.813 460.122 576.708 458.7C575.776 457.499 576.204 456.184 576.597 454.973C576.904 454.029 577.191 453.148 576.798 452.434C575.901 450.803 570.833 451.738 566.059 452.842C561.284 453.946 562.39 451.482 563.404 450.196C567.917 446.369 573.706 442.872 580.771 439.704Z" fill="#B28B67"/>
<path fill-rule="evenodd" clip-rule="evenodd" d="M639.592 352.347C628.706 383.408 610.344 408.7 582.512 436.286L596.065 448.418C628.773 429.84 645.9 419.018 651.2 390.408C652.53 383.228 651.184 361.165 650.996 349.48L639.592 352.347Z" fill="#2026A2"/>
<path fill-rule="evenodd" clip-rule="evenodd" d="M693.654 442.473L628.305 452.139C628.305 452.139 641.009 377.707 637.949 351.122C637.846 350.218 639.218 348.396 639.946 348.5C647.939 349.644 656.172 344.36 656.172 344.36C675.16 368.247 684.821 399.684 693.654 442.473Z" fill="#F2F2F2"/>
<path fill-rule="evenodd" clip-rule="evenodd" d="M645.112 386.723C641.047 434.23 646.545 471.814 669.079 468.481L703.923 463.327C704.239 423.434 682.461 371.408 665.328 346.076C664.673 345.108 663.314 343.303 660.732 343.685L650.607 345.183C650.605 345.198 650.603 345.212 650.6 345.227C647.556 345.704 644.217 346.317 640.6 346.982C621.982 350.401 596.02 355.169 565.349 349.611L564.314 368.289C593.195 382.27 621.87 392.168 645.112 386.723Z" fill="#1F28CF"/>
</g>
<defs>
<clipPath id="clip0_104_128">
<rect width="1097" height="712" fill="white"/>
</clipPath>
</defs>
</svg>
